<mxfile host="app.diagrams.net" modified="2024-05-02T07:21:49.373Z" agent="Mozilla/5.0 (Windows NT 10.0; Win64; x64) AppleWebKit/537.36 (KHTML, like Gecko) Chrome/124.0.0.0 Safari/537.36 Edg/124.0.0.0" etag="MDwvCAEo_WoCL1n5rcZG" version="24.3.1" type="device" pages="3">
  <diagram name="第 1 页" id="BlOCrIeywGgWwCpVofDG">
    <mxGraphModel dx="1042" dy="569" grid="1" gridSize="10" guides="1" tooltips="1" connect="1" arrows="1" fold="1" page="1" pageScale="1" pageWidth="827" pageHeight="1169" math="0" shadow="0">
      <root>
        <mxCell id="0" />
        <mxCell id="1" parent="0" />
        <mxCell id="yodteuJGOrMhOW1wi2sC-1" value="asr.h" style="rounded=1;whiteSpace=wrap;html=1;fillColor=#fff2cc;strokeColor=#d6b656;fontSize=16;" parent="1" vertex="1">
          <mxGeometry x="280" y="220" width="120" height="60" as="geometry" />
        </mxCell>
        <mxCell id="yodteuJGOrMhOW1wi2sC-2" value="tts.h" style="rounded=1;whiteSpace=wrap;html=1;fillColor=#fff2cc;strokeColor=#d6b656;fontSize=16;" parent="1" vertex="1">
          <mxGeometry x="280" y="330" width="120" height="60" as="geometry" />
        </mxCell>
        <mxCell id="yodteuJGOrMhOW1wi2sC-14" style="edgeStyle=orthogonalEdgeStyle;rounded=0;orthogonalLoop=1;jettySize=auto;html=1;exitX=1;exitY=0.5;exitDx=0;exitDy=0;" parent="1" source="yodteuJGOrMhOW1wi2sC-3" target="yodteuJGOrMhOW1wi2sC-1" edge="1">
          <mxGeometry relative="1" as="geometry" />
        </mxCell>
        <mxCell id="yodteuJGOrMhOW1wi2sC-3" value="baidu_sr.h" style="rounded=1;whiteSpace=wrap;html=1;fillColor=#d5e8d4;strokeColor=#82b366;fontSize=16;" parent="1" vertex="1">
          <mxGeometry x="120" y="220" width="120" height="60" as="geometry" />
        </mxCell>
        <mxCell id="yodteuJGOrMhOW1wi2sC-6" value="gpt_ask.h" style="rounded=1;whiteSpace=wrap;html=1;fillColor=#f8cecc;strokeColor=#b85450;fontSize=16;" parent="1" vertex="1">
          <mxGeometry x="440" y="280" width="120" height="60" as="geometry" />
        </mxCell>
        <mxCell id="yodteuJGOrMhOW1wi2sC-8" value="udp_server.h" style="rounded=1;whiteSpace=wrap;html=1;fillColor=#f8cecc;strokeColor=#b85450;fontSize=16;" parent="1" vertex="1">
          <mxGeometry x="440" y="370" width="120" height="60" as="geometry" />
        </mxCell>
        <mxCell id="yodteuJGOrMhOW1wi2sC-12" value="" style="shape=curlyBracket;whiteSpace=wrap;html=1;rounded=1;flipH=1;labelPosition=right;verticalLabelPosition=middle;align=left;verticalAlign=middle;fontSize=16;" parent="1" vertex="1">
          <mxGeometry x="574" y="300" width="20" height="120" as="geometry" />
        </mxCell>
        <mxCell id="yodteuJGOrMhOW1wi2sC-13" value="main.c" style="rounded=1;whiteSpace=wrap;html=1;fillColor=#e1d5e7;strokeColor=#9673a6;fontSize=16;" parent="1" vertex="1">
          <mxGeometry x="610" y="330" width="120" height="60" as="geometry" />
        </mxCell>
        <mxCell id="yodteuJGOrMhOW1wi2sC-15" value="" style="shape=curlyBracket;whiteSpace=wrap;html=1;rounded=1;flipH=1;labelPosition=right;verticalLabelPosition=middle;align=left;verticalAlign=middle;fontSize=16;" parent="1" vertex="1">
          <mxGeometry x="414" y="255" width="18.33" height="110" as="geometry" />
        </mxCell>
      </root>
    </mxGraphModel>
  </diagram>
  <diagram id="yloFvvJqO0NpU87VrGpy" name="第 2 页">
    <mxGraphModel dx="1489" dy="813" grid="1" gridSize="10" guides="1" tooltips="1" connect="1" arrows="1" fold="1" page="1" pageScale="1" pageWidth="827" pageHeight="1169" math="0" shadow="0">
      <root>
        <mxCell id="0" />
        <mxCell id="1" parent="0" />
        <mxCell id="AeTc2pgTVfgLZNeBHgTJ-8" value="" style="rounded=1;whiteSpace=wrap;html=1;dashed=1;fillColor=#f5f5f5;fontColor=#333333;strokeColor=#666666;" vertex="1" parent="1">
          <mxGeometry x="79" y="524" width="440" height="267" as="geometry" />
        </mxCell>
        <mxCell id="AeTc2pgTVfgLZNeBHgTJ-33" value="" style="rounded=1;whiteSpace=wrap;html=1;fillColor=#f5f5f5;dashed=1;fontColor=#333333;strokeColor=#666666;" vertex="1" parent="1">
          <mxGeometry x="125" y="352" width="348" height="120" as="geometry" />
        </mxCell>
        <mxCell id="AeTc2pgTVfgLZNeBHgTJ-15" style="edgeStyle=orthogonalEdgeStyle;rounded=0;orthogonalLoop=1;jettySize=auto;html=1;exitX=0.5;exitY=1;exitDx=0;exitDy=0;" edge="1" parent="1" source="sJQgQG_UXgzRve9LyXlZ-12" target="AeTc2pgTVfgLZNeBHgTJ-10">
          <mxGeometry relative="1" as="geometry" />
        </mxCell>
        <mxCell id="AeTc2pgTVfgLZNeBHgTJ-16" value="&lt;font style=&quot;font-size: 16px;&quot;&gt;raw binary bit-stream&lt;/font&gt;" style="edgeLabel;html=1;align=center;verticalAlign=middle;resizable=0;points=[];labelBackgroundColor=none;" vertex="1" connectable="0" parent="AeTc2pgTVfgLZNeBHgTJ-15">
          <mxGeometry x="-0.1856" y="-3" relative="1" as="geometry">
            <mxPoint x="-85" y="-1" as="offset" />
          </mxGeometry>
        </mxCell>
        <mxCell id="sJQgQG_UXgzRve9LyXlZ-12" value="Audio Input" style="ellipse;whiteSpace=wrap;html=1;aspect=fixed;fontSize=18;fillColor=#ffe6cc;strokeColor=#d79b00;" vertex="1" parent="1">
          <mxGeometry x="351" y="374" width="80" height="80" as="geometry" />
        </mxCell>
        <mxCell id="AeTc2pgTVfgLZNeBHgTJ-36" style="edgeStyle=orthogonalEdgeStyle;rounded=0;orthogonalLoop=1;jettySize=auto;html=1;exitX=0.25;exitY=1;exitDx=0;exitDy=0;entryX=0.75;entryY=0;entryDx=0;entryDy=0;" edge="1" parent="1" source="AeTc2pgTVfgLZNeBHgTJ-9" target="AeTc2pgTVfgLZNeBHgTJ-31">
          <mxGeometry relative="1" as="geometry" />
        </mxCell>
        <mxCell id="AeTc2pgTVfgLZNeBHgTJ-39" value="&lt;font style=&quot;font-size: 16px;&quot;&gt;question&lt;/font&gt;" style="edgeLabel;html=1;align=center;verticalAlign=middle;resizable=0;points=[];" vertex="1" connectable="0" parent="AeTc2pgTVfgLZNeBHgTJ-36">
          <mxGeometry x="0.1672" y="1" relative="1" as="geometry">
            <mxPoint x="37" y="1" as="offset" />
          </mxGeometry>
        </mxCell>
        <mxCell id="AeTc2pgTVfgLZNeBHgTJ-9" value="http client" style="rounded=1;whiteSpace=wrap;html=1;fontSize=16;fillColor=#e1d5e7;strokeColor=#9673a6;" vertex="1" parent="1">
          <mxGeometry x="311" y="691" width="160" height="80" as="geometry" />
        </mxCell>
        <mxCell id="AeTc2pgTVfgLZNeBHgTJ-20" style="edgeStyle=orthogonalEdgeStyle;rounded=0;orthogonalLoop=1;jettySize=auto;html=1;exitX=1;exitY=0.25;exitDx=0;exitDy=0;entryX=0;entryY=0.25;entryDx=0;entryDy=0;" edge="1" parent="1" source="AeTc2pgTVfgLZNeBHgTJ-10" target="AeTc2pgTVfgLZNeBHgTJ-17">
          <mxGeometry relative="1" as="geometry" />
        </mxCell>
        <mxCell id="AeTc2pgTVfgLZNeBHgTJ-21" value="&lt;font style=&quot;font-size: 16px;&quot;&gt;raw audio chunk&lt;/font&gt;" style="edgeLabel;html=1;align=center;verticalAlign=middle;resizable=0;points=[];labelBackgroundColor=none;" vertex="1" connectable="0" parent="AeTc2pgTVfgLZNeBHgTJ-20">
          <mxGeometry x="-0.0194" y="-2" relative="1" as="geometry">
            <mxPoint x="-9" y="-18" as="offset" />
          </mxGeometry>
        </mxCell>
        <mxCell id="AeTc2pgTVfgLZNeBHgTJ-29" style="edgeStyle=orthogonalEdgeStyle;rounded=0;orthogonalLoop=1;jettySize=auto;html=1;exitX=0.5;exitY=1;exitDx=0;exitDy=0;entryX=0.5;entryY=0;entryDx=0;entryDy=0;" edge="1" parent="1" source="AeTc2pgTVfgLZNeBHgTJ-10" target="AeTc2pgTVfgLZNeBHgTJ-9">
          <mxGeometry relative="1" as="geometry" />
        </mxCell>
        <mxCell id="AeTc2pgTVfgLZNeBHgTJ-30" value="&lt;font style=&quot;font-size: 16px;&quot;&gt;question text&lt;/font&gt;" style="edgeLabel;html=1;align=center;verticalAlign=middle;resizable=0;points=[];labelBackgroundColor=none;" vertex="1" connectable="0" parent="AeTc2pgTVfgLZNeBHgTJ-29">
          <mxGeometry x="-0.0298" y="3" relative="1" as="geometry">
            <mxPoint x="46" as="offset" />
          </mxGeometry>
        </mxCell>
        <mxCell id="AeTc2pgTVfgLZNeBHgTJ-10" value="http stream" style="rounded=1;whiteSpace=wrap;html=1;fontSize=16;fillColor=#f8cecc;strokeColor=#b85450;" vertex="1" parent="1">
          <mxGeometry x="311" y="564" width="160" height="80" as="geometry" />
        </mxCell>
        <mxCell id="AeTc2pgTVfgLZNeBHgTJ-42" style="edgeStyle=orthogonalEdgeStyle;rounded=0;orthogonalLoop=1;jettySize=auto;html=1;exitX=0.5;exitY=0;exitDx=0;exitDy=0;entryX=0.5;entryY=1;entryDx=0;entryDy=0;" edge="1" parent="1" source="AeTc2pgTVfgLZNeBHgTJ-11" target="AeTc2pgTVfgLZNeBHgTJ-41">
          <mxGeometry relative="1" as="geometry" />
        </mxCell>
        <mxCell id="AeTc2pgTVfgLZNeBHgTJ-43" value="&lt;font style=&quot;font-size: 16px;&quot;&gt;response chunk&lt;/font&gt;" style="edgeLabel;html=1;align=center;verticalAlign=middle;resizable=0;points=[];labelBackgroundColor=none;" vertex="1" connectable="0" parent="AeTc2pgTVfgLZNeBHgTJ-42">
          <mxGeometry x="-0.0612" y="1" relative="1" as="geometry">
            <mxPoint x="-63" as="offset" />
          </mxGeometry>
        </mxCell>
        <mxCell id="AeTc2pgTVfgLZNeBHgTJ-11" value="text queue" style="rounded=1;whiteSpace=wrap;html=1;fontSize=16;fillColor=#d5e8d4;strokeColor=#82b366;" vertex="1" parent="1">
          <mxGeometry x="131" y="691" width="160" height="80" as="geometry" />
        </mxCell>
        <mxCell id="AeTc2pgTVfgLZNeBHgTJ-22" style="edgeStyle=orthogonalEdgeStyle;rounded=0;orthogonalLoop=1;jettySize=auto;html=1;exitX=0;exitY=0.75;exitDx=0;exitDy=0;entryX=1;entryY=0.75;entryDx=0;entryDy=0;" edge="1" parent="1" source="AeTc2pgTVfgLZNeBHgTJ-17" target="AeTc2pgTVfgLZNeBHgTJ-10">
          <mxGeometry relative="1" as="geometry" />
        </mxCell>
        <mxCell id="AeTc2pgTVfgLZNeBHgTJ-23" value="question text" style="edgeLabel;html=1;align=center;verticalAlign=middle;resizable=0;points=[];fontSize=17;labelBackgroundColor=none;" vertex="1" connectable="0" parent="AeTc2pgTVfgLZNeBHgTJ-22">
          <mxGeometry x="0.0904" relative="1" as="geometry">
            <mxPoint y="-15" as="offset" />
          </mxGeometry>
        </mxCell>
        <mxCell id="AeTc2pgTVfgLZNeBHgTJ-17" value="Baidu ASR" style="rounded=0;whiteSpace=wrap;html=1;strokeWidth=1;fontSize=18;fillColor=#fad7ac;strokeColor=#b46504;" vertex="1" parent="1">
          <mxGeometry x="619" y="564" width="160" height="80" as="geometry" />
        </mxCell>
        <mxCell id="AeTc2pgTVfgLZNeBHgTJ-38" style="edgeStyle=orthogonalEdgeStyle;rounded=0;orthogonalLoop=1;jettySize=auto;html=1;exitX=0.25;exitY=0;exitDx=0;exitDy=0;entryX=0.75;entryY=1;entryDx=0;entryDy=0;" edge="1" parent="1" source="AeTc2pgTVfgLZNeBHgTJ-31" target="AeTc2pgTVfgLZNeBHgTJ-11">
          <mxGeometry relative="1" as="geometry" />
        </mxCell>
        <mxCell id="AeTc2pgTVfgLZNeBHgTJ-40" value="&lt;font style=&quot;font-size: 17px;&quot;&gt;response chunk&lt;/font&gt;" style="edgeLabel;html=1;align=center;verticalAlign=middle;resizable=0;points=[];" vertex="1" connectable="0" parent="AeTc2pgTVfgLZNeBHgTJ-38">
          <mxGeometry x="-0.1541" relative="1" as="geometry">
            <mxPoint x="-65" y="4" as="offset" />
          </mxGeometry>
        </mxCell>
        <mxCell id="AeTc2pgTVfgLZNeBHgTJ-31" value="&lt;span style=&quot;color: rgb(48, 53, 64); font-family: -apple-system, BlinkMacSystemFont, &amp;quot;SF Pro SC&amp;quot;, &amp;quot;SF Pro Text&amp;quot;, &amp;quot;Helvetica Neue&amp;quot;, Helvetica, &amp;quot;PingFang SC&amp;quot;, &amp;quot;Segoe UI&amp;quot;, Roboto, &amp;quot;Hiragino Sans GB&amp;quot;, Arial, &amp;quot;microsoft yahei ui&amp;quot;, &amp;quot;Microsoft YaHei&amp;quot;, SimSun, sans-serif; text-align: left;&quot;&gt;&lt;font style=&quot;font-size: 18px;&quot;&gt;Baidu ERNIE Model&lt;/font&gt;&lt;/span&gt;" style="rounded=0;whiteSpace=wrap;html=1;strokeWidth=1;fontSize=18;fillColor=#fff2cc;strokeColor=#d6b656;" vertex="1" parent="1">
          <mxGeometry x="201" y="832" width="200" height="80" as="geometry" />
        </mxCell>
        <mxCell id="AeTc2pgTVfgLZNeBHgTJ-32" value="Audio output" style="ellipse;whiteSpace=wrap;html=1;aspect=fixed;fontSize=18;fillColor=#ffe6cc;strokeColor=#d79b00;" vertex="1" parent="1">
          <mxGeometry x="171" y="374" width="80" height="80" as="geometry" />
        </mxCell>
        <mxCell id="AeTc2pgTVfgLZNeBHgTJ-34" value="&lt;b&gt;ESP32&lt;/b&gt;" style="text;html=1;align=center;verticalAlign=middle;resizable=0;points=[];autosize=1;strokeColor=none;fillColor=none;fontSize=18;" vertex="1" parent="1">
          <mxGeometry x="259" y="524" width="80" height="40" as="geometry" />
        </mxCell>
        <mxCell id="AeTc2pgTVfgLZNeBHgTJ-35" value="&lt;b&gt;ES8388&lt;/b&gt;&lt;div&gt;&lt;b&gt;codec&lt;/b&gt;&lt;/div&gt;" style="text;html=1;align=center;verticalAlign=middle;resizable=0;points=[];autosize=1;strokeColor=none;fillColor=none;fontSize=18;" vertex="1" parent="1">
          <mxGeometry x="254" y="384" width="90" height="60" as="geometry" />
        </mxCell>
        <mxCell id="AeTc2pgTVfgLZNeBHgTJ-52" style="edgeStyle=orthogonalEdgeStyle;rounded=0;orthogonalLoop=1;jettySize=auto;html=1;exitX=0.5;exitY=0;exitDx=0;exitDy=0;entryX=0.5;entryY=1;entryDx=0;entryDy=0;" edge="1" parent="1" source="AeTc2pgTVfgLZNeBHgTJ-41" target="AeTc2pgTVfgLZNeBHgTJ-32">
          <mxGeometry relative="1" as="geometry" />
        </mxCell>
        <mxCell id="AeTc2pgTVfgLZNeBHgTJ-41" value="esp text to speech" style="rounded=1;whiteSpace=wrap;html=1;fontSize=16;fillColor=#dae8fc;strokeColor=#6c8ebf;" vertex="1" parent="1">
          <mxGeometry x="131" y="562" width="160" height="80" as="geometry" />
        </mxCell>
        <mxCell id="AeTc2pgTVfgLZNeBHgTJ-50" style="edgeStyle=orthogonalEdgeStyle;rounded=0;orthogonalLoop=1;jettySize=auto;html=1;exitX=0.5;exitY=1;exitDx=0;exitDy=0;" edge="1" parent="1" source="AeTc2pgTVfgLZNeBHgTJ-45" target="sJQgQG_UXgzRve9LyXlZ-12">
          <mxGeometry relative="1" as="geometry" />
        </mxCell>
        <mxCell id="AeTc2pgTVfgLZNeBHgTJ-53" value="analog audio data" style="edgeLabel;html=1;align=center;verticalAlign=middle;resizable=0;points=[];fontSize=16;labelBackgroundColor=none;" vertex="1" connectable="0" parent="AeTc2pgTVfgLZNeBHgTJ-50">
          <mxGeometry x="-0.2" relative="1" as="geometry">
            <mxPoint x="-90" y="-7" as="offset" />
          </mxGeometry>
        </mxCell>
        <mxCell id="AeTc2pgTVfgLZNeBHgTJ-45" value="MIC" style="verticalLabelPosition=middle;verticalAlign=middle;html=1;shape=trapezoid;perimeter=trapezoidPerimeter;whiteSpace=wrap;size=0.23;arcSize=10;flipV=1;labelPosition=center;align=center;fontSize=16;" vertex="1" parent="1">
          <mxGeometry x="357.5" y="281.8" width="67" height="40.2" as="geometry" />
        </mxCell>
        <mxCell id="AeTc2pgTVfgLZNeBHgTJ-46" value="SPK" style="verticalLabelPosition=middle;verticalAlign=middle;html=1;shape=trapezoid;perimeter=trapezoidPerimeter;whiteSpace=wrap;size=0.23;arcSize=10;flipV=1;labelPosition=center;align=center;fontSize=16;" vertex="1" parent="1">
          <mxGeometry x="177.5" y="281.8" width="67" height="40.2" as="geometry" />
        </mxCell>
        <mxCell id="AeTc2pgTVfgLZNeBHgTJ-54" style="edgeStyle=orthogonalEdgeStyle;rounded=0;orthogonalLoop=1;jettySize=auto;html=1;exitX=0.5;exitY=0;exitDx=0;exitDy=0;entryX=0.5;entryY=0.025;entryDx=0;entryDy=0;entryPerimeter=0;" edge="1" parent="1" source="AeTc2pgTVfgLZNeBHgTJ-32" target="AeTc2pgTVfgLZNeBHgTJ-46">
          <mxGeometry relative="1" as="geometry" />
        </mxCell>
      </root>
    </mxGraphModel>
  </diagram>
  <diagram id="6YZsu0WB5rx0m0pow-Nz" name="第 3 页">
    <mxGraphModel dx="1042" dy="569" grid="1" gridSize="10" guides="1" tooltips="1" connect="1" arrows="1" fold="1" page="1" pageScale="1" pageWidth="827" pageHeight="1169" math="0" shadow="0">
      <root>
        <mxCell id="0" />
        <mxCell id="1" parent="0" />
        <mxCell id="q1Sqx1bu3SU6mjn22Mws-9" value="" style="rounded=1;whiteSpace=wrap;html=1;fillColor=#f5f5f5;fontColor=#333333;strokeColor=#666666;dashed=1;" vertex="1" parent="1">
          <mxGeometry x="164" y="180" width="500" height="270" as="geometry" />
        </mxCell>
        <mxCell id="q1Sqx1bu3SU6mjn22Mws-6" style="edgeStyle=orthogonalEdgeStyle;rounded=0;orthogonalLoop=1;jettySize=auto;html=1;exitX=0;exitY=0.75;exitDx=0;exitDy=0;entryX=1;entryY=0.75;entryDx=0;entryDy=0;" edge="1" parent="1" source="q1Sqx1bu3SU6mjn22Mws-1" target="q1Sqx1bu3SU6mjn22Mws-4">
          <mxGeometry relative="1" as="geometry" />
        </mxCell>
        <mxCell id="q1Sqx1bu3SU6mjn22Mws-8" value="1). Send Audio&lt;div style=&quot;font-size: 16px;&quot;&gt;2). Send None&lt;/div&gt;&lt;div style=&quot;font-size: 16px;&quot;&gt;3). no response&lt;/div&gt;" style="edgeLabel;html=1;align=left;verticalAlign=middle;resizable=0;points=[];fontSize=16;labelBackgroundColor=none;" vertex="1" connectable="0" parent="q1Sqx1bu3SU6mjn22Mws-6">
          <mxGeometry x="0.0974" y="1" relative="1" as="geometry">
            <mxPoint x="-42" y="40" as="offset" />
          </mxGeometry>
        </mxCell>
        <mxCell id="q1Sqx1bu3SU6mjn22Mws-1" value="ESP UDP&lt;div style=&quot;font-size: 16px;&quot;&gt;Server&lt;/div&gt;" style="rounded=1;whiteSpace=wrap;html=1;fontSize=16;fillColor=#dae8fc;strokeColor=#6c8ebf;" vertex="1" parent="1">
          <mxGeometry x="530" y="280" width="100" height="100" as="geometry" />
        </mxCell>
        <mxCell id="q1Sqx1bu3SU6mjn22Mws-5" style="edgeStyle=orthogonalEdgeStyle;rounded=0;orthogonalLoop=1;jettySize=auto;html=1;exitX=1;exitY=0.25;exitDx=0;exitDy=0;entryX=0;entryY=0.25;entryDx=0;entryDy=0;" edge="1" parent="1" source="q1Sqx1bu3SU6mjn22Mws-4" target="q1Sqx1bu3SU6mjn22Mws-1">
          <mxGeometry relative="1" as="geometry" />
        </mxCell>
        <mxCell id="q1Sqx1bu3SU6mjn22Mws-7" value="&lt;font style=&quot;font-size: 16px;&quot;&gt;Send&amp;nbsp; Audio&lt;/font&gt;" style="edgeLabel;html=1;align=center;verticalAlign=middle;resizable=0;points=[];labelBackgroundColor=none;" vertex="1" connectable="0" parent="q1Sqx1bu3SU6mjn22Mws-5">
          <mxGeometry x="-0.3148" y="2" relative="1" as="geometry">
            <mxPoint x="31" y="-13" as="offset" />
          </mxGeometry>
        </mxCell>
        <mxCell id="q1Sqx1bu3SU6mjn22Mws-4" value="Mobile UDP&lt;div style=&quot;font-size: 16px;&quot;&gt;Client&lt;/div&gt;" style="rounded=1;whiteSpace=wrap;html=1;fontSize=16;fillColor=#d5e8d4;strokeColor=#82b366;" vertex="1" parent="1">
          <mxGeometry x="200" y="280" width="100" height="100" as="geometry" />
        </mxCell>
        <mxCell id="q1Sqx1bu3SU6mjn22Mws-11" value="&lt;span style=&quot;color: rgb(17, 17, 17); font-family: &amp;quot;Microsoft YaHei&amp;quot;, Arial, Helvetica, sans-serif; font-size: 20px; text-align: left;&quot;&gt;&lt;b&gt;in LAN&lt;/b&gt;&lt;/span&gt;&lt;div&gt;&lt;span style=&quot;color: rgb(17, 17, 17); font-family: &amp;quot;Microsoft YaHei&amp;quot;, Arial, Helvetica, sans-serif; font-size: 20px; text-align: left;&quot;&gt;&lt;b&gt;(Local Area Network)&lt;/b&gt;&lt;/span&gt;&lt;/div&gt;" style="text;html=1;align=center;verticalAlign=middle;whiteSpace=wrap;rounded=0;labelBackgroundColor=none;" vertex="1" parent="1">
          <mxGeometry x="219" y="210" width="390" height="30" as="geometry" />
        </mxCell>
        <mxCell id="Qlr9PPjQJ6IkOLI_Aeko-1" value="Audio&lt;div style=&quot;font-size: 16px;&quot;&gt;IO&lt;/div&gt;" style="ellipse;whiteSpace=wrap;html=1;aspect=fixed;fillColor=#f5f5f5;fontColor=#333333;strokeColor=#666666;fontSize=16;" vertex="1" parent="1">
          <mxGeometry x="30" y="287.5" width="85" height="85" as="geometry" />
        </mxCell>
        <mxCell id="Qlr9PPjQJ6IkOLI_Aeko-2" value="Audio&lt;div style=&quot;font-size: 16px;&quot;&gt;IO&lt;/div&gt;" style="ellipse;whiteSpace=wrap;html=1;aspect=fixed;fillColor=#f5f5f5;fontColor=#333333;strokeColor=#666666;fontSize=16;" vertex="1" parent="1">
          <mxGeometry x="710" y="285" width="90" height="90" as="geometry" />
        </mxCell>
        <mxCell id="Qlr9PPjQJ6IkOLI_Aeko-5" value="" style="endArrow=classic;startArrow=classic;html=1;rounded=0;exitX=0;exitY=0.5;exitDx=0;exitDy=0;entryX=1;entryY=0.5;entryDx=0;entryDy=0;" edge="1" parent="1" source="q1Sqx1bu3SU6mjn22Mws-4" target="Qlr9PPjQJ6IkOLI_Aeko-1">
          <mxGeometry width="50" height="50" relative="1" as="geometry">
            <mxPoint x="375" y="305" as="sourcePoint" />
            <mxPoint x="95" y="325" as="targetPoint" />
          </mxGeometry>
        </mxCell>
        <mxCell id="Qlr9PPjQJ6IkOLI_Aeko-6" value="" style="endArrow=classic;startArrow=classic;html=1;rounded=0;entryX=0;entryY=0.5;entryDx=0;entryDy=0;exitX=1;exitY=0.5;exitDx=0;exitDy=0;" edge="1" parent="1" source="q1Sqx1bu3SU6mjn22Mws-1" target="Qlr9PPjQJ6IkOLI_Aeko-2">
          <mxGeometry width="50" height="50" relative="1" as="geometry">
            <mxPoint x="390" y="320" as="sourcePoint" />
            <mxPoint x="440" y="270" as="targetPoint" />
          </mxGeometry>
        </mxCell>
      </root>
    </mxGraphModel>
  </diagram>
</mxfile>
